# xmcd CD database file
#
# Track frame offsets:
#	150
#	54830
#	101858
#	162908
#	209043
#
# Disc length: 3658 seconds
#
# Revision: 2
# Processed by: cddbd v1.4b41PL1 Copyright (c) Steve Scherf et al.
# Submitted via: Feurio! 1.50.2ß - http://www.feurio.com
#
DISCID=420e4805
DTITLE=Grateful Dead - Dick's Picks Vol 14 Disc 4
DYEAR=1900
DGENRE=
TTITLE0=Playing In The Band
TTITLE1=He's Gone
TTITLE2=Truckin'
TTITLE3=Stella Blue
TTITLE4=Walk Me Out (Morning Dew)
EXTD=
EXTT0=
EXTT1=
EXTT2=
EXTT3=
EXTT4=
PLAYORDER=
